<svg width="18" height="18" viewBox="0 0 18 18" fill="none" xmlns="http://www.w3.org/2000/svg">
<path d="M9.09495 6.13619C7.518 6.13619 6.23108 7.4231 6.23108 9.00005C6.23108 10.577 7.518 11.8639 9.09495 11.8639C10.6719 11.8639 11.9588 10.577 11.9588 9.00005C11.9588 7.4231 10.6719 6.13619 9.09495 6.13619ZM17.6844 9.00005C17.6844 7.81411 17.6951 6.63892 17.6285 5.45513C17.5619 4.08013 17.2483 2.85982 16.2428 1.85435C15.2352 0.846733 14.017 0.535209 12.642 0.468608C11.4561 0.402006 10.2809 0.412748 9.0971 0.412748C7.91116 0.412748 6.73597 0.402006 5.55218 0.468608C4.17718 0.535209 2.95686 0.848881 1.9514 1.85435C0.943779 2.86197 0.632255 4.08013 0.565654 5.45513C0.499052 6.64107 0.509794 7.81626 0.509794 9.00005C0.509794 10.1838 0.499052 11.3612 0.565654 12.545C0.632255 13.92 0.945927 15.1403 1.9514 16.1458C2.95901 17.1534 4.17718 17.4649 5.55218 17.5315C6.73811 17.5981 7.91331 17.5874 9.0971 17.5874C10.283 17.5874 11.4582 17.5981 12.642 17.5315C14.017 17.4649 15.2373 17.1512 16.2428 16.1458C17.2504 15.1381 17.5619 13.92 17.6285 12.545C17.6973 11.3612 17.6844 10.186 17.6844 9.00005ZM9.09495 13.4065C6.65647 13.4065 4.68851 11.4385 4.68851 9.00005C4.68851 6.56158 6.65647 4.59361 9.09495 4.59361C11.5334 4.59361 13.5014 6.56158 13.5014 9.00005C13.5014 11.4385 11.5334 13.4065 9.09495 13.4065ZM13.6819 5.44224C13.1125 5.44224 12.6528 4.98247 12.6528 4.41314C12.6528 3.8438 13.1125 3.38404 13.6819 3.38404C14.2512 3.38404 14.711 3.8438 14.711 4.41314C14.7111 4.54833 14.6846 4.68223 14.633 4.80716C14.5813 4.93209 14.5055 5.04561 14.4099 5.1412C14.3143 5.2368 14.2008 5.31259 14.0759 5.36425C13.951 5.41591 13.8171 5.44241 13.6819 5.44224Z" fill="#00BFC3"/>
</svg>
