<svg width="43" height="48" viewBox="0 0 43 48" fill="none" xmlns="http://www.w3.org/2000/svg">
<path fill-rule="evenodd" clip-rule="evenodd" d="M8.6206 0.0398786C7.39828 0.230663 6.3594 0.722388 5.51192 1.51128C4.98782 1.99913 4.64447 2.46494 4.30737 3.14559C3.87542 4.01761 3.77154 4.48761 3.77304 5.56226C3.77417 6.34473 3.78984 6.49557 3.91934 6.96977C4.24337 8.15664 4.95521 9.2144 5.92078 9.9437C7.39505 11.0572 9.30929 11.3875 11.088 10.8354C12.5084 10.3946 13.7425 9.34208 14.4413 7.97563C14.5984 7.66847 14.8164 6.98124 14.9101 6.4978C15.0625 5.71166 14.983 4.63075 14.7122 3.80951C14.2208 2.31882 12.9706 1.00378 11.4668 0.39558C10.6903 0.0815727 9.39256 -0.080583 8.6206 0.0398786ZM31.0404 0.044234C30.5563 0.0997376 29.6157 0.404291 29.1464 0.657589C27.0589 1.78402 25.8943 4.07869 26.2442 6.37532C26.5771 8.55999 28.2254 10.3563 30.4288 10.9354C30.9585 11.0747 32.0881 11.1243 32.7045 11.0353C33.5595 10.912 34.4398 10.5309 35.2655 9.92676C36.1982 9.24441 36.9674 8.08935 37.2787 6.90406C37.4203 6.3647 37.4709 5.34863 37.3855 4.76242C37.2226 3.6447 36.695 2.576 35.8911 1.735C34.651 0.437859 32.9076 -0.169814 31.0404 0.044234ZM6.72816 12.9459C4.11069 13.248 1.93443 14.7627 0.739397 17.1145C0.498852 17.5879 0.258899 18.2955 0.121699 18.9361C0.00010763 19.5041 0 19.509 0 24.6566C0 29.4948 0.00602845 29.8296 0.0988232 30.1538C0.259599 30.7154 0.589064 31.2795 0.997274 31.692C1.43891 32.1383 1.86138 32.4147 2.82879 32.8902L3.55839 33.2488L3.65 34.0516C3.70043 34.4932 3.77912 35.1771 3.82493 35.5714C3.87079 35.9658 3.94281 36.5992 3.98501 36.9789C4.02721 37.3587 4.11133 38.0877 4.172 38.5989C4.23266 39.1101 4.32997 39.9526 4.38832 40.4712C4.55507 41.9529 4.69986 43.2205 4.81768 44.2289C4.87738 44.7402 4.9741 45.5767 5.03255 46.0879C5.09106 46.5991 5.16324 47.2206 5.19301 47.4689C5.22277 47.7172 5.24732 47.9382 5.24753 47.9602C5.2478 47.9821 7.09864 48 9.36053 48H13.4731L13.5059 47.7477C13.524 47.609 13.5878 47.0174 13.6478 46.4332C13.7077 45.8489 13.7923 45.0243 13.8358 44.6007C13.8793 44.1772 13.9638 43.3765 14.0237 42.8214C14.1409 41.736 14.2826 40.3956 14.4507 38.7848C14.5787 37.5583 14.7385 36.0471 14.8832 34.695C14.9426 34.14 15.0274 33.3274 15.0717 32.8892C15.116 32.451 15.1645 31.9849 15.1795 31.8535C15.2069 31.613 15.2824 30.906 15.4744 29.0916C15.5317 28.5511 15.6283 27.6429 15.6891 27.0733C15.8664 25.4135 16.014 23.9943 16.0498 23.6049C16.068 23.4062 16.1017 23.2628 16.1247 23.2862C16.1477 23.3096 16.4122 23.9621 16.7125 24.7363C17.7916 27.5177 18.6897 29.867 18.7835 30.1538C18.9017 30.5153 19.1925 30.9331 19.451 31.1129C19.5584 31.1875 19.8475 31.3177 20.0935 31.402C20.5069 31.5438 20.563 31.5508 20.8346 31.4946C20.9963 31.4611 21.2914 31.3549 21.4905 31.2586C21.8076 31.1051 21.8838 31.0372 22.1046 30.7115C22.2432 30.507 22.3867 30.2322 22.4234 30.1007C22.4601 29.9693 22.7906 29.073 23.1578 28.109C23.5249 27.145 23.9583 25.999 24.1208 25.5624C24.4364 24.7143 24.5129 24.5443 24.5158 24.6847C24.5166 24.7294 24.4826 25.0521 24.4401 25.4018C24.3976 25.7514 24.3474 26.2287 24.3285 26.4624C24.3097 26.6961 24.2724 27.0786 24.2455 27.3123C24.2187 27.546 24.1595 28.1196 24.114 28.587C23.9021 30.7639 23.893 30.82 23.6823 31.2409C23.4307 31.7432 22.9887 32.2232 22.53 32.4921C22.3187 32.616 21.8341 32.8112 21.3679 32.9603C20.9281 33.101 20.5919 33.2304 20.6208 33.2481C20.6497 33.2657 21.1205 33.4126 21.6669 33.5746C25.4304 34.6898 26.7281 35.0795 26.7497 35.1008C26.7734 35.1242 26.8087 35.4618 27.0463 37.935C27.1053 38.5484 27.1651 39.146 27.1794 39.2628C27.1936 39.3797 27.2424 39.8577 27.2878 40.3251C27.3333 40.7925 27.3824 41.2825 27.3971 41.4139C27.4117 41.5454 27.4606 42.0353 27.5059 42.5027C27.5511 42.9701 27.6596 44.0696 27.7469 44.946C27.8342 45.8223 27.9315 46.814 27.9631 47.1497C27.9947 47.4854 28.0342 47.814 28.051 47.88L28.0815 48H31.8337H35.5858L35.6767 47.0307C35.7266 46.4975 35.8155 45.5833 35.8742 44.9991C36.1187 42.5636 36.2015 41.7298 36.2514 41.2015C36.2803 40.8947 36.3403 40.2972 36.3847 39.8736C36.4291 39.45 36.5384 38.3506 36.6276 37.4304C36.7167 36.5102 36.8045 35.609 36.8226 35.4276L36.8554 35.0979L37.1051 35.0225C37.7459 34.8289 41.4257 33.7308 42.1452 33.5185C42.5892 33.3875 42.9734 33.2601 42.9989 33.2355C43.037 33.1987 42.0309 29.409 41.5533 27.7903C41.4843 27.5566 41.3028 26.8993 41.1498 26.3297C40.9968 25.76 40.8382 25.1864 40.7973 25.0549C40.7564 24.9235 40.5904 24.326 40.4283 23.7271C40.2661 23.1282 40.0093 22.1961 39.8577 21.6557C39.6188 20.8047 39.4093 20.0528 38.9995 18.5751C38.9468 18.3852 38.8139 17.8994 38.7041 17.4956C38.3284 16.1137 37.8437 15.2572 36.9725 14.4353C36.2049 13.7112 35.3465 13.2579 34.3141 13.0316C33.8291 12.9253 33.654 12.9194 30.9764 12.919C27.93 12.9184 27.9401 12.9177 26.9934 13.2199C25.4815 13.7025 24.1949 14.8626 23.587 16.2912C23.4814 16.5395 23.2255 17.1968 23.0185 17.7518C22.8115 18.3069 22.3363 19.5736 21.9626 20.5668C21.5889 21.5601 21.1353 22.7731 20.9547 23.2624C20.774 23.7516 20.6101 24.152 20.5904 24.152C20.5707 24.152 20.4138 23.7875 20.2416 23.342C20.0694 22.8966 19.6872 21.9106 19.3921 21.1511C19.097 20.3916 18.6501 19.2324 18.3991 18.5751C17.5442 16.3367 16.9199 15.4155 15.5896 14.4298C14.6682 13.7472 13.6968 13.323 12.4679 13.0667C11.7967 12.9267 11.7567 12.9247 9.44633 12.9137C8.15856 12.9075 6.93538 12.922 6.72816 12.9459Z" fill="#FF5A4E"/>
</svg>
