<svg width="45" height="49" viewBox="0 0 45 49" fill="none" xmlns="http://www.w3.org/2000/svg">
<path fill-rule="evenodd" clip-rule="evenodd" d="M12.6789 0.120718C11.456 0.417845 10.249 1.21609 9.50391 2.22045C7.7496 4.5852 8.0222 7.69675 10.1604 9.71408C12.4128 11.8392 15.8214 11.7789 18.0014 9.57543C19.0828 8.48245 19.6259 7.15184 19.6288 5.5884C19.6316 4.01164 19.1235 2.81413 17.9619 1.66059C17.123 0.827366 16.3809 0.389771 15.3702 0.132407C14.6963 -0.0392003 13.3612 -0.0449493 12.6789 0.120718ZM42.5257 11.9403C42.317 12.1267 41.6313 13.4252 40.185 16.3718L38.1395 20.5396L34.1308 20.5876C31.2486 20.622 30.0654 20.668 29.9201 20.7513C29.14 21.1989 29.2218 22.5341 30.0504 22.8773C30.2446 22.9577 31.5718 22.9812 34.8419 22.9618L39.3649 22.9351L39.6459 22.6476C39.8147 22.475 40.8343 20.5051 42.1971 17.719C44.2902 13.4397 44.463 13.0475 44.4149 12.6887C44.2941 11.788 43.187 11.3495 42.5257 11.9403ZM8.33389 12.0199C8.0495 12.0964 7.6076 12.2728 7.35186 12.412C6.78884 12.7184 5.93397 13.5934 5.64585 14.1583C5.18066 15.0702 5.16532 15.351 5.16408 22.983C5.16341 27.2028 5.20145 30.3564 5.25702 30.6962C5.46456 31.9651 6.35997 33.1557 7.54589 33.7395L8.17483 34.0492L11.3874 34.128C13.1542 34.1713 15.8569 34.1879 17.3934 34.1649C18.9298 34.1419 20.2449 34.1588 20.3158 34.2026C20.4213 34.2679 20.4493 35.4743 20.4705 40.8613L20.4965 47.4403L22.1557 47.3992C23.7271 47.3603 23.8435 47.3442 24.3511 47.0958C24.9596 46.7981 25.4103 46.3321 25.7044 45.6964C25.9029 45.2674 25.9067 45.1472 25.9331 38.2287C25.9629 30.4476 25.9721 30.5812 25.3544 29.7782C25.1836 29.5561 24.8067 29.2407 24.5169 29.0771L23.9899 28.7799L20.1332 28.7518L16.2766 28.7238V27.5936C16.2766 26.9719 16.3049 25.4908 16.3395 24.3021L16.4024 22.1408L16.8577 22.421C17.7902 22.9948 17.7769 22.9934 22.2742 22.9629C26.2546 22.9359 26.3996 22.9285 26.8333 22.728C27.4008 22.4657 28.0975 21.8266 28.4251 21.2676C28.6177 20.939 28.6796 20.7026 28.6819 20.2873C28.6856 19.615 28.4816 19.3023 27.8155 18.9592L27.3492 18.7191L23.2262 18.6712C19.4558 18.6274 19.0725 18.6081 18.7445 18.445C18.5472 18.347 17.9174 17.7795 17.345 17.184C16.3835 16.1838 16.2519 15.9997 15.6185 14.7672C15.2413 14.0333 14.7806 13.2552 14.5946 13.0379C14.1732 12.5456 13.273 12.0975 12.4439 11.9674C11.509 11.8207 8.95325 11.8533 8.33389 12.0199ZM1.10921 18.8041C0.559894 18.9562 0.106489 19.3606 0.0312731 19.7659C0.00118667 19.9279 0.063755 20.5564 0.170303 21.1625C0.665101 23.9763 0.708985 26.6542 0.335683 31.2711C0.203552 32.9048 0.0667253 34.8502 0.0315606 35.5941C-0.0268876 36.8286 -0.0153896 36.9853 0.162734 37.3881C0.283367 37.6607 0.4796 37.9036 0.675928 38.0233C0.981104 38.2093 1.1483 38.2172 4.83916 38.2174L8.68439 38.2178L8.74504 39.0562C8.77838 39.5174 8.83089 40.2269 8.86184 40.633C8.91645 41.3516 8.91195 41.3725 8.69272 41.4149C6.57738 41.8234 5.70381 42.1084 4.54855 42.7667C2.85988 43.7291 1.71295 44.9772 1.64099 45.9311C1.57086 46.861 2.26323 47.558 3.18077 47.4815C4.25967 47.3916 4.88985 46.291 4.39764 45.3562L4.19585 44.9729L4.51118 44.7023C5.29822 44.0271 7.41769 43.2127 8.81556 43.0483L9.34897 42.9857L9.41029 43.3565C9.44392 43.5604 9.47037 43.9213 9.46884 44.1585C9.46654 44.5354 9.42859 44.6138 9.16654 44.7813C8.66206 45.1038 8.47435 45.4416 8.47435 46.0269C8.47435 46.8443 9.00039 47.4113 9.82585 47.4834C10.7185 47.5615 11.39 46.9362 11.39 46.0269C11.39 45.4324 11.1151 44.9514 10.6508 44.7334C10.3181 44.5771 10.3312 44.6762 10.4825 43.4638C10.5392 43.01 10.5405 43.0087 10.9062 43.0087C12.2444 43.0087 14.4436 43.7612 15.5846 44.6095L15.8987 44.8431L15.6603 45.1264C14.7936 46.1564 15.8017 47.7459 17.1505 47.4762C18.1744 47.2715 18.6339 46.0051 18.0013 45.1319C17.8432 44.9136 17.7139 44.6306 17.7139 44.5028C17.7139 44.1099 16.5454 43.1911 15.1747 42.506C14.2155 42.0266 13.1948 41.7069 11.9993 41.5113C11.427 41.4177 10.9526 41.3391 10.945 41.3365C10.9375 41.334 10.9899 40.7282 11.0617 39.9904C11.1335 39.2527 11.1935 38.552 11.1953 38.4334L11.1983 38.2178H14.9235C18.1215 38.2178 18.6655 38.1974 18.7681 38.0738C18.8509 37.9741 18.8743 37.6867 18.8443 37.1396C18.7952 36.2445 18.5783 35.715 18.094 35.3075L17.795 35.0559H10.7136H3.63216L3.60658 27.3975C3.58109 19.8011 3.57927 19.737 3.38074 19.4687C2.93078 18.8605 1.94617 18.5723 1.10921 18.8041ZM19.841 23.8645C19.6789 24.0266 19.6789 27.4967 19.841 27.6588C19.9289 27.7467 22.1341 27.7738 29.1827 27.7738H38.4094L38.4338 38.3855L38.4582 48.9972H40.0871H41.716L41.7403 38.3855L41.7647 27.7738H42.2835C43.1598 27.7738 43.1053 27.9072 43.1053 25.7617C43.1053 24.1213 43.0849 23.858 42.9537 23.8077C42.8704 23.7757 37.6618 23.7495 31.3791 23.7495C22.6222 23.7495 19.9291 23.7763 19.841 23.8645Z" fill="#FF5A4E"/>
</svg>
