<svg width="44" height="43" viewBox="0 0 44 43" fill="none" xmlns="http://www.w3.org/2000/svg">
<path fill-rule="evenodd" clip-rule="evenodd" d="M19.4278 0.0519023C17.1648 0.263604 16.1321 0.476525 15.2024 0.922929C13.9653 1.51709 13.0086 2.48604 12.3974 3.76357C11.566 5.50196 11.4585 8.72401 12.1581 10.9388C12.6975 12.6462 14.2239 14.1467 16.0116 14.7269C16.4181 14.8588 16.4654 14.8986 16.414 15.0643C16.2686 15.5331 15.7437 16.443 15.34 16.9262C14.8654 17.4942 14.7905 17.7855 15.0569 18.0266C15.2818 18.2302 15.8559 18.2093 16.8312 17.9619C18.4001 17.5639 19.7149 16.8738 20.7781 15.8905L21.3009 15.407L22.6948 15.3469C24.2542 15.2796 26.109 15.0897 27.0943 14.8964C28.5674 14.6074 30.0839 13.5728 30.9274 12.2816C31.8841 10.8171 32.2642 8.4014 31.9231 5.95516C31.71 4.42759 31.3159 3.44044 30.5426 2.4978C29.0444 0.671413 27.094 0.078474 22.3463 0.00625143C21.1963 -0.0112597 19.883 0.00930064 19.4278 0.0519023ZM3.83259 5.7127C1.29852 6.02721 -0.426801 8.44897 0.0962677 10.9573C0.530735 13.0405 2.60367 14.5834 4.70997 14.3914C8.27623 14.0663 9.98405 9.89281 7.6623 7.17667C6.76653 6.1287 5.22598 5.53986 3.83259 5.7127ZM37.9645 5.91691C36.8652 6.29153 35.9749 7.07195 35.4645 8.10842C35.1338 8.78002 35.0271 9.25692 35.0244 10.0745C35.0205 11.2696 35.4325 12.24 36.3195 13.1251C38.7166 15.5167 42.7293 14.4033 43.6077 11.1026C44.1889 8.91881 42.8035 6.4967 40.6039 5.8514C39.8857 5.64074 38.6877 5.67045 37.9645 5.91691ZM18.4485 6.58338C19.0336 6.94005 19.2338 7.63065 18.9267 8.23291C18.3782 9.3085 16.7765 9.06142 16.5835 7.87154C16.5549 7.69555 16.5559 7.45449 16.5857 7.33575C16.654 7.06367 17.0478 6.59044 17.2862 6.49399C17.6119 6.36227 18.1543 6.40391 18.4485 6.58338ZM22.538 6.58033C23.0861 6.91444 23.2845 7.74687 22.9508 8.31184C22.7673 8.62251 22.2041 8.93606 21.8297 8.93606C21.2806 8.93606 20.7398 8.44636 20.608 7.82955C20.5241 7.43698 20.8141 6.8132 21.186 6.58643C21.5617 6.35748 22.168 6.35469 22.538 6.58033ZM26.5805 6.60734C26.9835 6.87654 27.2004 7.31763 27.1543 7.77379C27.0307 8.99373 25.4763 9.34404 24.8202 8.29973C24.6004 7.94977 24.6298 7.24784 24.8786 6.90781C25.2536 6.39555 26.0523 6.2545 26.5805 6.60734ZM3.31056 17.0026C1.69579 17.4312 0.427063 18.7452 0.0962677 20.3313C0.0329314 20.6348 0 22.3816 0 25.4313C0 30.4603 0.00897334 30.5723 0.489615 31.5208C0.800111 32.1334 1.64178 32.9909 2.24778 33.3116C3.25341 33.8439 3.33356 33.8524 7.3775 33.8524H11.0642V37.8191C11.0642 40.9537 11.0889 41.845 11.1819 42.0676C11.338 42.4411 11.8617 42.8912 12.2181 42.958C12.3755 42.9875 13.193 42.9993 14.0347 42.9841C15.5582 42.9565 15.5666 42.9553 15.8848 42.7123C16.5318 42.2184 16.5063 42.4226 16.535 37.5114C16.5505 34.8449 16.5251 32.8215 16.4705 32.3747C16.2469 30.5455 14.8899 28.9959 13.1532 28.5865C12.737 28.4884 12.0803 28.4532 10.6504 28.4523L8.71201 28.4509V24.5464C8.71201 21.2277 8.69118 20.5708 8.57305 20.1686C7.88916 17.8405 5.52115 16.4158 3.31056 17.0026ZM38.3881 17.0022C36.8781 17.3677 35.6219 18.6004 35.1612 20.1686C35.0431 20.5708 35.0223 21.2277 35.0223 24.5464V28.4509H33.1099C32.0503 28.4509 30.9917 28.4939 30.7359 28.5472C29.1476 28.8784 27.7651 30.2115 27.3353 31.8262C27.2526 32.1369 27.225 33.4513 27.225 37.0758C27.225 42.4806 27.1954 42.213 27.8495 42.7123C28.1677 42.9553 28.1761 42.9565 29.6996 42.9841C30.5412 42.9993 31.3588 42.9875 31.5162 42.958C31.8726 42.8912 32.3963 42.4411 32.5523 42.0676C32.6454 41.845 32.67 40.9537 32.67 37.8191V33.8524H36.3568C40.4007 33.8524 40.4809 33.8439 41.4865 33.3116C42.0925 32.9909 42.9342 32.1334 43.2447 31.5208C43.7253 30.5723 43.7343 30.4603 43.7343 25.4313C43.7343 22.3816 43.7013 20.6348 43.638 20.3313C43.4696 19.5238 43.0596 18.7869 42.4352 18.1695C41.3143 17.061 39.8681 16.644 38.3881 17.0022ZM12.8651 20.5807C12.833 20.6128 12.8066 21.6127 12.8066 22.8027V24.9661H16.2479H19.6891V33.9831V43H21.8671H24.0451V33.9841V24.9682L27.4646 24.9454L30.8841 24.9226V22.7446V20.5666L21.9038 20.5444C16.9647 20.5322 12.8973 20.5486 12.8651 20.5807Z" fill="#FF5A4E"/>
</svg>
