<svg width="18" height="15" viewBox="0 0 18 15" fill="none" xmlns="http://www.w3.org/2000/svg">
<path d="M17.1289 2.21463C16.5689 2.45597 15.979 2.62113 15.3751 2.7057C15.6557 2.7057 16.0591 2.16202 16.252 1.96033C16.5056 1.65448 16.699 1.30338 16.822 0.92559C16.822 0.92559 16.822 0.85544 16.822 0.837902C16.8074 0.829436 16.7907 0.824983 16.7738 0.824983C16.7568 0.824983 16.7402 0.829436 16.7255 0.837902C16.0845 1.1771 15.4042 1.43626 14.6999 1.60958C14.6789 1.62282 14.6546 1.62984 14.6298 1.62984C14.605 1.62984 14.5806 1.62282 14.5596 1.60958C14.5057 1.54403 14.4471 1.48248 14.3842 1.42542C14.0927 1.17283 13.7607 0.971236 13.4021 0.829131C12.9253 0.630933 12.4089 0.546856 11.8939 0.5836C11.3942 0.620008 10.9071 0.757736 10.4624 0.988392C10.0177 1.21905 9.62458 1.5378 9.30699 1.92526C8.97884 2.33051 8.74516 2.80383 8.62298 3.31076C8.52661 3.79119 8.52661 4.28598 8.62298 4.76642C8.62298 4.84534 8.62297 4.8541 8.55282 4.84533C5.87482 4.57986 3.39069 3.32996 1.5815 1.33773C1.50258 1.24128 1.45872 1.24128 1.39734 1.33773C1.02867 2.00503 0.88742 2.77426 0.995013 3.52899C1.10261 4.28373 1.45317 4.98286 1.99362 5.52055L2.42329 5.89762C1.95649 5.85659 1.5015 5.7287 1.08166 5.52055C0.993975 5.46794 0.958877 5.52055 0.950108 5.5907C0.93721 5.72192 0.93721 5.85409 0.950108 5.98531C1.03309 6.61347 1.2814 7.20832 1.66965 7.70905C2.05791 8.20978 2.57221 8.59842 3.15991 8.83523C3.3026 8.90033 3.45283 8.94746 3.60714 8.97553C3.16846 9.04452 2.72169 9.04452 2.28301 8.97553C2.18655 8.97553 2.15149 8.97553 2.18657 9.0983C2.41178 9.68989 2.78465 10.214 3.26969 10.6208C3.75472 11.0275 4.33576 11.3034 4.95755 11.4221C5.08434 11.4305 5.21035 11.4481 5.33461 11.4747C4.79651 11.9625 4.14568 12.3091 3.44053 12.4831C2.51925 12.8106 1.53833 12.9362 0.56427 12.8514C0.406428 12.8514 0.380113 12.8514 0.336268 12.8514C0.292423 12.8514 0.33631 12.9128 0.380155 12.9567C0.573073 13.0794 0.774754 13.1934 0.976441 13.3074C1.58676 13.6334 2.23067 13.8921 2.89685 14.0791C4.60647 14.5894 6.41963 14.6451 8.15734 14.2407C9.89506 13.8363 11.4973 12.9857 12.8058 11.7728C13.747 10.7508 14.4746 9.551 14.9459 8.24396C15.4173 6.93691 15.6228 5.5489 15.5505 4.16135C15.5505 4.05613 15.682 3.99474 15.761 3.93336C16.2758 3.53257 16.7305 3.06009 17.1114 2.53032C17.1701 2.45203 17.201 2.35634 17.1991 2.25848C17.1991 2.25848 17.1991 2.18833 17.1289 2.21463Z" fill="#00BFC3"/>
</svg>
