<svg width="18" height="13" viewBox="0 0 18 13" fill="none" xmlns="http://www.w3.org/2000/svg">
<path d="M17.891 4.35378C17.891 3.36536 17.4983 2.41742 16.7994 1.7185C16.1005 1.01959 15.1525 0.626953 14.1641 0.626953H4.64101C3.65259 0.626953 2.70462 1.01959 2.00571 1.7185C1.30679 2.41742 0.914185 3.36536 0.914185 4.35378V8.73828C0.914185 9.72669 1.30679 10.6746 2.00571 11.3736C2.70462 12.0725 3.65259 12.4651 4.64101 12.4651H14.1641C15.1525 12.4651 16.1005 12.0725 16.7994 11.3736C17.4983 10.6746 17.891 9.72669 17.891 8.73828V4.35378ZM12.2876 6.89678L8.01705 9.01012C7.85044 9.10658 7.28043 9.01012 7.28043 8.79089V4.45022C7.28043 4.25731 7.85922 4.13454 8.02583 4.231L12.1122 6.45833C12.2875 6.52849 12.4629 6.77402 12.2876 6.87048V6.89678Z" fill="#00BFC3"/>
</svg>
